<svg id="visual" viewBox="0 0 900 600" width="900" height="600" xmlns="http://www.w3.org/2000/svg" xmlns:xlink="http://www.w3.org/1999/xlink" version="1.1"><rect x="0" y="0" width="900" height="600" fill="#845EC2"></rect><path d="M0 384L21.5 381.7C43 379.3 86 374.7 128.8 378.7C171.7 382.7 214.3 395.3 257.2 396.5C300 397.7 343 387.3 385.8 392C428.7 396.7 471.3 416.3 514.2 414.8C557 413.3 600 390.7 642.8 377.5C685.7 364.3 728.3 360.7 771.2 366.7C814 372.7 857 388.3 878.5 396.2L900 404L900 601L878.5 601C857 601 814 601 771.2 601C728.3 601 685.7 601 642.8 601C600 601 557 601 514.2 601C471.3 601 428.7 601 385.8 601C343 601 300 601 257.2 601C214.3 601 171.7 601 128.8 601C86 601 43 601 21.5 601L0 601Z" fill="#d5cabd"></path><path d="M0 464L21.5 452.5C43 441 86 418 128.8 420C171.7 422 214.3 449 257.2 448.7C300 448.3 343 420.7 385.8 412C428.7 403.3 471.3 413.7 514.2 420.5C557 427.3 600 430.7 642.8 431.8C685.7 433 728.3 432 771.2 432.7C814 433.3 857 435.7 878.5 436.8L900 438L900 601L878.5 601C857 601 814 601 771.2 601C728.3 601 685.7 601 642.8 601C600 601 557 601 514.2 601C471.3 601 428.7 601 385.8 601C343 601 300 601 257.2 601C214.3 601 171.7 601 128.8 601C86 601 43 601 21.5 601L0 601Z" fill="#b5b9a5"></path><path d="M0 455L21.5 459.7C43 464.3 86 473.7 128.8 480.8C171.7 488 214.3 493 257.2 496.3C300 499.7 343 501.3 385.8 491.3C428.7 481.3 471.3 459.7 514.2 449.5C557 439.3 600 440.7 642.8 447.7C685.7 454.7 728.3 467.3 771.2 468.3C814 469.3 857 458.7 878.5 453.3L900 448L900 601L878.5 601C857 601 814 601 771.2 601C728.3 601 685.7 601 642.8 601C600 601 557 601 514.2 601C471.3 601 428.7 601 385.8 601C343 601 300 601 257.2 601C214.3 601 171.7 601 128.8 601C86 601 43 601 21.5 601L0 601Z" fill="#8ea998"></path><path d="M0 529L21.5 528.7C43 528.3 86 527.7 128.8 528.7C171.7 529.7 214.3 532.3 257.2 526.7C300 521 343 507 385.8 500.5C428.7 494 471.3 495 514.2 498C557 501 600 506 642.8 504.8C685.7 503.7 728.3 496.3 771.2 500.7C814 505 857 521 878.5 529L900 537L900 601L878.5 601C857 601 814 601 771.2 601C728.3 601 685.7 601 642.8 601C600 601 557 601 514.2 601C471.3 601 428.7 601 385.8 601C343 601 300 601 257.2 601C214.3 601 171.7 601 128.8 601C86 601 43 601 21.5 601L0 601Z" fill="#679896"></path><path d="M0 567L21.5 562.2C43 557.3 86 547.7 128.8 547.2C171.7 546.7 214.3 555.3 257.2 558.5C300 561.7 343 559.3 385.8 557.3C428.7 555.3 471.3 553.7 514.2 552.7C557 551.7 600 551.3 642.8 550.3C685.7 549.3 728.3 547.7 771.2 544.3C814 541 857 536 878.5 533.5L900 531L900 601L878.5 601C857 601 814 601 771.2 601C728.3 601 685.7 601 642.8 601C600 601 557 601 514.2 601C471.3 601 428.7 601 385.8 601C343 601 300 601 257.2 601C214.3 601 171.7 601 128.8 601C86 601 43 601 21.5 601L0 601Z" fill="#4e8397"></path></svg>